<?xml version="1.0" encoding="UTF-8"?>
<svg id="Layer_1" data-name="Layer 1" xmlns="http://www.w3.org/2000/svg" viewBox="0 0 897 448">
  <defs>
    <style>
      .cls-1 {
        fill: #fff;
      }
    </style>
  </defs>
  <path class="cls-1" d="M889,0h8V327c-.3,1.1-.8,2.2-.9,3.3-8.4,55.2-38.8,92.4-91.1,111.6-7.4,2.7-15.3,4.1-22.9,6.1h-39c-8.1-2.1-16.4-3.9-24.4-6.5-17.1-5.6-32.2-14.8-45.8-26.6-1.1,.9-2,1.6-2.9,2.3-16.7,14-35.7,23.4-57,28.3-3.3,.8-6.6,1.6-9.9,2.5h-39c-1.1-.3-2.1-.8-3.3-1-64.5-10.6-112.2-66.9-112.2-132.4V89.2c0-35.9,22.3-69.1,55.7-82.2,8.3-3.2,17.2-4.7,25.8-7h8c.1,2.3,.2,4.7,.2,7,0,101-.1,202,.1,303,0,6.9,1,14.1,3.4,20.5,7.7,20.6,28.7,31.6,50.3,27.5,20.6-3.9,35.8-22.5,35.8-44,.1-45-.1-90,0-135,.1-39.6,26.5-74.6,64.6-85.4,8-2.3,16.5-3,25.4-4.5v224c0,3,0,6,.5,9,4.4,23.1,25.5,39.2,48,36.9,23.6-2.4,40.6-21.4,40.6-45.3V92.7c0-41.5,24.4-75.8,62.7-88C876,2.5,882.5,1.5,889,0Z"/>
  <path class="cls-1" d="M244,448H0v-9c.3-1.2,.8-2.4,1-3.7,6.3-43.3,44.2-76.3,88-76.3h68.5c23,0,46,.4,68.9-.3,23.3-.6,42.4-20.2,42.6-42.7,.3-26.8-19.1-46.5-45.9-46.5-31.8-.1-63.6,.7-95.4-.5-59.5-2.3-109.8-44.4-123.7-102.2-1.6-6.5-2.7-13.2-4-19.8v-24c.3-.7,.8-1.4,.8-2.2C8.1,60.3,50,14.6,109.5,2.6,114.3,1.6,119.2,.9,124,0h235c-.3,4.6-.4,9.3-1,13.9-5.2,41.1-43.2,75.6-84.6,76-46,.4-92,.2-137.9,.3-4,0-8,.4-11.8,1.4-21.6,5.5-36.1,26.5-33.4,48.1,2.8,22.7,21.4,39.6,44.1,39.7,29.7,.1,59.3-.1,89,.1,7.8,.1,15.7,.5,23.4,1.8,71,12.4,118.7,75.5,111.5,147.2-5.4,53.7-43.6,99.5-95.5,114.6-6.3,1.9-12.6,3.3-18.8,4.9Z"/>
</svg>