<?xml version="1.0" encoding="utf-8"?>
<!-- Generator: Adobe Illustrator 27.0.0, SVG Export Plug-In . SVG Version: 6.00 Build 0)  -->
<svg version="1.1" id="Layer_1" xmlns="http://www.w3.org/2000/svg" xmlns:xlink="http://www.w3.org/1999/xlink" x="0px" y="0px"
	 viewBox="0 0 897 448" style="enable-background:new 0 0 897 448;" xml:space="preserve">
<style type="text/css">
	.st0{fill:#222222;}
</style>
<g>
	<path class="st0" d="M889,0c2.7,0,5.3,0,8,0c0,109,0,218,0,327c-0.3,1.1-0.8,2.2-0.9,3.3c-8.4,55.2-38.8,92.4-91.1,111.6
		c-7.4,2.7-15.3,4.1-22.9,6.1c-13,0-26,0-39,0c-8.1-2.1-16.4-3.9-24.4-6.5c-17.1-5.6-32.2-14.8-45.8-26.6c-1.1,0.9-2,1.6-2.9,2.3
		c-16.7,14-35.7,23.4-57,28.3c-3.3,0.8-6.6,1.6-9.9,2.5c-13,0-26,0-39,0c-1.1-0.3-2.1-0.8-3.3-1c-64.5-10.6-112.2-66.9-112.2-132.4
		c0-75.1,0-150.3,0-225.4c0-35.9,22.3-69.1,55.7-82.2c8.3-3.2,17.2-4.7,25.8-7c2.7,0,5.3,0,8,0c0.1,2.3,0.2,4.7,0.2,7
		c0,101-0.1,202,0.1,303c0,6.9,1,14.1,3.4,20.5c7.7,20.6,28.7,31.6,50.3,27.5c20.6-3.9,35.8-22.5,35.8-44c0.1-45-0.1-90,0-135
		c0.1-39.6,26.5-74.6,64.6-85.4c8-2.3,16.5-3,25.4-4.5c0,3.5,0,5.5,0,7.5c0,72.2,0,144.3,0,216.5c0,3,0,6,0.5,9
		c4.4,23.1,25.5,39.2,48,36.9c23.6-2.4,40.6-21.4,40.6-45.3c0-73.7,0-147.3,0-221c0-41.5,24.4-75.8,62.7-88C876,2.5,882.5,1.5,889,0
		z"/>
	<path class="st0" d="M244,448c-81.3,0-162.7,0-244,0c0-3,0-6,0-9c0.3-1.2,0.8-2.4,1-3.7C7.3,392,45.2,359,89,359
		c22.8,0,45.6,0,68.5,0c23,0,46,0.4,68.9-0.3c23.3-0.6,42.4-20.2,42.6-42.7c0.3-26.8-19.1-46.5-45.9-46.5
		c-31.8-0.1-63.6,0.7-95.4-0.5C68.2,266.7,17.9,224.6,4,166.8c-1.6-6.5-2.7-13.2-4-19.8c0-8,0-16,0-24c0.3-0.7,0.8-1.4,0.8-2.2
		C8.1,60.3,50,14.6,109.5,2.6c4.8-1,9.7-1.7,14.5-2.6c78.3,0,156.7,0,235,0c-0.3,4.6-0.4,9.3-1,13.9c-5.2,41.1-43.2,75.6-84.6,76
		c-46,0.4-92,0.2-137.9,0.3c-4,0-8,0.4-11.8,1.4c-21.6,5.5-36.1,26.5-33.4,48.1c2.8,22.7,21.4,39.6,44.1,39.7
		c29.7,0.1,59.3-0.1,89,0.1c7.8,0.1,15.7,0.5,23.4,1.8c71,12.4,118.7,75.5,111.5,147.2c-5.4,53.7-43.6,99.5-95.5,114.6
		C256.5,445,250.2,446.4,244,448z"/>
</g>
</svg>
